<svg width="69" height="40" viewBox="0 0 69 40" fill="none" xmlns="http://www.w3.org/2000/svg">
<path d="M29.984 8.28H36.256V29.688L32.672 25.976H46.144V31H29.984V8.28ZM56.5585 31.512C54.4465 31.512 52.5585 31.0427 50.8945 30.104C49.2305 29.1653 47.9292 27.8 46.9905 26.008C46.0518 24.216 45.5825 22.104 45.5825 19.672C45.5825 17.304 46.0305 15.224 46.9265 13.432C47.8225 11.6187 49.1025 10.2213 50.7665 9.24C52.4518 8.25867 54.4252 7.768 56.6865 7.768C59.7585 7.768 62.1692 8.51467 63.9185 10.008C65.6678 11.5013 66.7985 13.72 67.3105 16.664L60.8145 16.888C60.5798 15.5867 60.0998 14.584 59.3745 13.88C58.6705 13.1547 57.7745 12.792 56.6865 12.792C55.6625 12.792 54.7985 13.08 54.0945 13.656C53.4118 14.232 52.8892 15.0427 52.5265 16.088C52.1852 17.112 52.0145 18.3067 52.0145 19.672C52.0145 21.0587 52.1958 22.264 52.5585 23.288C52.9212 24.312 53.4438 25.1013 54.1265 25.656C54.8305 26.2107 55.6625 26.488 56.6225 26.488C57.8385 26.488 58.7878 26.1147 59.4705 25.368C60.1745 24.6213 60.6225 23.544 60.8145 22.136L67.3425 22.36C66.8518 25.368 65.6998 27.6507 63.8865 29.208C62.0732 30.744 59.6305 31.512 56.5585 31.512Z" fill="#1B1B1B"/>
<rect y="13" width="11" height="11" fill="#1B1B1B"/>
<rect x="11" y="2" width="11" height="11" fill="#F69511"/>
<rect x="11" y="2" width="11" height="11" fill="#F69511"/>
<rect x="11" y="24" width="11" height="11" fill="#F69511"/>
<rect x="11" y="24" width="11" height="11" fill="#FFC000"/>
</svg>
