<svg width="196" height="40" viewBox="0 0 196 40" fill="none" xmlns="http://www.w3.org/2000/svg">
<path d="M29.984 8.28H36.256V29.688L32.672 25.976H46.144V31H29.984V8.28ZM55.1125 31.384C53.2565 31.384 51.6245 31.0107 50.2165 30.264C48.8085 29.5173 47.7098 28.4613 46.9205 27.096C46.1525 25.7307 45.7685 24.152 45.7685 22.36C45.7685 20.568 46.1525 18.9893 46.9205 17.624C47.7098 16.2587 48.8085 15.2027 50.2165 14.456C51.6245 13.7093 53.2565 13.336 55.1125 13.336C56.9685 13.336 58.6005 13.7093 60.0085 14.456C61.4165 15.2027 62.5045 16.2587 63.2725 17.624C64.0618 18.9893 64.4565 20.568 64.4565 22.36C64.4565 24.152 64.0618 25.7307 63.2725 27.096C62.5045 28.4613 61.4165 29.5173 60.0085 30.264C58.6005 31.0107 56.9685 31.384 55.1125 31.384ZM55.1125 26.936C56.0725 26.936 56.8085 26.5413 57.3205 25.752C57.8325 24.9627 58.0885 23.832 58.0885 22.36C58.0885 20.9093 57.8325 19.7893 57.3205 19C56.8085 18.1893 56.0725 17.784 55.1125 17.784C54.1525 17.784 53.4165 18.1893 52.9045 19C52.3925 19.7893 52.1365 20.9093 52.1365 22.36C52.1365 23.832 52.3925 24.9627 52.9045 25.752C53.4165 26.5413 54.1525 26.936 55.1125 26.936ZM74.0125 31.384C72.1565 31.384 70.5245 31.0107 69.1165 30.264C67.7085 29.5173 66.6098 28.4613 65.8205 27.096C65.0525 25.7307 64.6685 24.152 64.6685 22.36C64.6685 20.568 65.0525 18.9893 65.8205 17.624C66.6098 16.2587 67.7085 15.2027 69.1165 14.456C70.5245 13.7093 72.1565 13.336 74.0125 13.336C75.6765 13.336 77.1698 13.6347 78.4925 14.232C79.8365 14.808 80.9138 15.6507 81.7245 16.76C82.5352 17.848 83.0152 19.128 83.1645 20.6L76.7965 20.856C76.6685 19.8533 76.3592 19.096 75.8685 18.584C75.3992 18.072 74.7805 17.816 74.0125 17.816C73.0525 17.816 72.3165 18.2107 71.8045 19C71.2925 19.7893 71.0365 20.9093 71.0365 22.36C71.0365 23.832 71.2925 24.9627 71.8045 25.752C72.3165 26.5413 73.0525 26.936 74.0125 26.936C74.8018 26.936 75.4418 26.68 75.9325 26.168C76.4232 25.656 76.7112 24.8667 76.7965 23.8L83.1645 23.992C83.0365 25.4853 82.5672 26.7973 81.7565 27.928C80.9672 29.0373 79.9005 29.8907 78.5565 30.488C77.2338 31.0853 75.7192 31.384 74.0125 31.384ZM89.2773 31.384C87.4213 31.384 85.9173 30.968 84.7653 30.136C83.6133 29.2827 83.0373 28.12 83.0373 26.648C83.0373 25.1547 83.5173 23.992 84.4773 23.16C85.4586 22.328 86.9306 21.6987 88.8933 21.272L94.0773 20.184C94.0773 19.288 93.8853 18.6053 93.5013 18.136C93.1173 17.6667 92.5839 17.432 91.9013 17.432C91.1759 17.432 90.6106 17.6133 90.2053 17.976C89.8213 18.3173 89.5759 18.8293 89.4693 19.512L83.3253 19.32C83.6453 17.272 84.5306 15.768 85.9813 14.808C87.4319 13.8267 89.4053 13.336 91.9013 13.336C94.7173 13.336 96.8186 13.944 98.2053 15.16C99.5919 16.376 100.285 18.2213 100.285 20.696V25.752C100.285 26.2853 100.371 26.648 100.541 26.84C100.712 27.0107 100.968 27.096 101.309 27.096H101.661V31C101.469 31.064 101.149 31.1173 100.701 31.16C100.275 31.224 99.8693 31.256 99.4853 31.256C98.3119 31.256 97.3093 30.9467 96.4773 30.328C95.6453 29.7093 95.2293 28.6107 95.2293 27.032L95.6773 27.544C95.3146 28.76 94.5999 29.7093 93.5333 30.392C92.4879 31.0533 91.0693 31.384 89.2773 31.384ZM91.0053 27.48C91.6026 27.48 92.1253 27.3627 92.5733 27.128C93.0426 26.8933 93.4053 26.5307 93.6613 26.04C93.9386 25.5493 94.0773 24.9413 94.0773 24.216V23.64L91.2613 24.344C90.6853 24.472 90.2266 24.6853 89.8853 24.984C89.5653 25.2827 89.4053 25.6453 89.4053 26.072C89.4053 26.5413 89.5333 26.8933 89.7893 27.128C90.0453 27.3627 90.4506 27.48 91.0053 27.48ZM107.546 31C105.84 31 104.538 30.5733 103.642 29.72C102.746 28.8667 102.298 27.5227 102.298 25.688V8.28H108.506V24.984C108.506 25.5813 108.634 26.008 108.89 26.264C109.168 26.4987 109.573 26.616 110.106 26.616H111.034V31H107.546ZM127.715 31.512C125.603 31.512 123.715 31.0427 122.051 30.104C120.387 29.1653 119.085 27.8 118.147 26.008C117.208 24.216 116.739 22.104 116.739 19.672C116.739 17.304 117.187 15.224 118.083 13.432C118.979 11.6187 120.259 10.2213 121.923 9.24C123.608 8.25867 125.581 7.768 127.843 7.768C130.915 7.768 133.325 8.51467 135.075 10.008C136.824 11.5013 137.955 13.72 138.467 16.664L131.971 16.888C131.736 15.5867 131.256 14.584 130.531 13.88C129.827 13.1547 128.931 12.792 127.843 12.792C126.819 12.792 125.955 13.08 125.251 13.656C124.568 14.232 124.045 15.0427 123.683 16.088C123.341 17.112 123.171 18.3067 123.171 19.672C123.171 21.0587 123.352 22.264 123.715 23.288C124.077 24.312 124.6 25.1013 125.283 25.656C125.987 26.2107 126.819 26.488 127.779 26.488C128.995 26.488 129.944 26.1147 130.627 25.368C131.331 24.6213 131.779 23.544 131.971 22.136L138.499 22.36C138.008 25.368 136.856 27.6507 135.043 29.208C133.229 30.744 130.787 31.512 127.715 31.512ZM145.159 31.384C143.303 31.384 141.799 30.968 140.647 30.136C139.495 29.2827 138.919 28.12 138.919 26.648C138.919 25.1547 139.399 23.992 140.359 23.16C141.34 22.328 142.812 21.6987 144.775 21.272L149.959 20.184C149.959 19.288 149.767 18.6053 149.383 18.136C148.999 17.6667 148.465 17.432 147.783 17.432C147.057 17.432 146.492 17.6133 146.087 17.976C145.703 18.3173 145.457 18.8293 145.351 19.512L139.207 19.32C139.527 17.272 140.412 15.768 141.863 14.808C143.313 13.8267 145.287 13.336 147.783 13.336C150.599 13.336 152.7 13.944 154.087 15.16C155.473 16.376 156.167 18.2213 156.167 20.696V25.752C156.167 26.2853 156.252 26.648 156.423 26.84C156.593 27.0107 156.849 27.096 157.191 27.096H157.543V31C157.351 31.064 157.031 31.1173 156.583 31.16C156.156 31.224 155.751 31.256 155.367 31.256C154.193 31.256 153.191 30.9467 152.359 30.328C151.527 29.7093 151.111 28.6107 151.111 27.032L151.559 27.544C151.196 28.76 150.481 29.7093 149.415 30.392C148.369 31.0533 146.951 31.384 145.159 31.384ZM146.887 27.48C147.484 27.48 148.007 27.3627 148.455 27.128C148.924 26.8933 149.287 26.5307 149.543 26.04C149.82 25.5493 149.959 24.9413 149.959 24.216V23.64L147.143 24.344C146.567 24.472 146.108 24.6853 145.767 24.984C145.447 25.2827 145.287 25.6453 145.287 26.072C145.287 26.5413 145.415 26.8933 145.671 27.128C145.927 27.3627 146.332 27.48 146.887 27.48ZM169.756 31.384C168.561 31.384 167.527 31.1387 166.652 30.648C165.799 30.136 165.127 29.4213 164.636 28.504L164.54 31H158.492V8.28H164.7V16.216C165.191 15.32 165.873 14.616 166.748 14.104C167.623 13.592 168.625 13.336 169.756 13.336C171.164 13.336 172.401 13.7093 173.468 14.456C174.535 15.2027 175.356 16.2587 175.932 17.624C176.508 18.9893 176.796 20.568 176.796 22.36C176.796 24.152 176.508 25.7307 175.932 27.096C175.356 28.4613 174.535 29.5173 173.468 30.264C172.401 31.0107 171.164 31.384 169.756 31.384ZM167.644 26.936C168.476 26.936 169.148 26.5413 169.66 25.752C170.172 24.9413 170.428 23.8107 170.428 22.36C170.428 20.9093 170.172 19.7893 169.66 19C169.169 18.1893 168.497 17.784 167.644 17.784C167.025 17.784 166.492 17.9653 166.044 18.328C165.596 18.6693 165.255 19.1813 165.02 19.864C164.807 20.5467 164.7 21.3787 164.7 22.36C164.7 23.32 164.807 24.1413 165.02 24.824C165.255 25.5067 165.596 26.0293 166.044 26.392C166.492 26.7547 167.025 26.936 167.644 26.936ZM185.864 31.384C183.986 31.384 182.397 31.1387 181.096 30.648C179.794 30.1573 178.802 29.4747 178.12 28.6C177.458 27.7253 177.085 26.712 177 25.56L183.24 25.4C183.368 26.0827 183.645 26.5947 184.072 26.936C184.498 27.256 185.106 27.416 185.896 27.416C186.557 27.416 187.048 27.3093 187.368 27.096C187.709 26.8827 187.88 26.5733 187.88 26.168C187.88 25.8693 187.805 25.624 187.656 25.432C187.506 25.2187 187.218 25.0373 186.792 24.888C186.365 24.7387 185.757 24.6 184.968 24.472C183.005 24.152 181.48 23.7787 180.392 23.352C179.325 22.9253 178.557 22.3707 178.088 21.688C177.64 21.0053 177.416 20.12 177.416 19.032C177.416 17.2613 178.12 15.8747 179.528 14.872C180.957 13.848 183.069 13.336 185.864 13.336C188.445 13.336 190.44 13.8907 191.848 15C193.256 16.088 194.056 17.6027 194.248 19.544L188.104 19.736C188.04 18.9467 187.805 18.3493 187.4 17.944C186.994 17.5173 186.461 17.304 185.8 17.304C185.181 17.304 184.69 17.4427 184.328 17.72C183.965 17.9973 183.784 18.3707 183.784 18.84C183.784 19.16 183.858 19.4267 184.008 19.64C184.178 19.8533 184.445 20.024 184.808 20.152C185.192 20.28 185.714 20.3867 186.376 20.472C188.274 20.728 189.8 21.0907 190.952 21.56C192.104 22.008 192.936 22.5947 193.448 23.32C193.981 24.0453 194.248 24.9413 194.248 26.008C194.248 27.736 193.512 29.0693 192.04 30.008C190.589 30.9253 188.53 31.384 185.864 31.384Z" fill="#1B1B1B"/>
<rect y="13" width="11" height="11" fill="#1B1B1B"/>
<rect x="11" y="2" width="11" height="11" fill="#F69511"/>
<rect x="11" y="2" width="11" height="11" fill="#F69511"/>
<rect x="11" y="24" width="11" height="11" fill="#F69511"/>
<rect x="11" y="24" width="11" height="11" fill="#FFC000"/>
</svg>
